<mxfile host="app.diagrams.net" agent="Mozilla/5.0 (Windows NT 10.0; Win64; x64) AppleWebKit/537.36 (KHTML, like Gecko) Chrome/139.0.0.0 Safari/537.36" version="26.2.14">
  <diagram name="Halaman-1" id="bSEGFfcpUKC_wH8E2GYW">
    <mxGraphModel dx="1310" dy="695" grid="1" gridSize="10" guides="1" tooltips="1" connect="1" arrows="1" fold="1" page="1" pageScale="1" pageWidth="827" pageHeight="1169" math="0" shadow="0">
      <root>
        <mxCell id="0" />
        <mxCell id="1" parent="0" />
        <mxCell id="ZcGMghU7jkiHjOlIlVme-5" style="edgeStyle=orthogonalEdgeStyle;rounded=0;orthogonalLoop=1;jettySize=auto;html=1;entryX=0.5;entryY=0;entryDx=0;entryDy=0;" edge="1" parent="1" source="ZcGMghU7jkiHjOlIlVme-3" target="ZcGMghU7jkiHjOlIlVme-4">
          <mxGeometry relative="1" as="geometry" />
        </mxCell>
        <mxCell id="ZcGMghU7jkiHjOlIlVme-3" value="Mulai&amp;nbsp;" style="strokeWidth=2;html=1;shape=mxgraph.flowchart.terminator;whiteSpace=wrap;" vertex="1" parent="1">
          <mxGeometry x="340" y="50" width="110" height="50" as="geometry" />
        </mxCell>
        <mxCell id="ZcGMghU7jkiHjOlIlVme-15" style="edgeStyle=orthogonalEdgeStyle;rounded=0;orthogonalLoop=1;jettySize=auto;html=1;" edge="1" parent="1" source="ZcGMghU7jkiHjOlIlVme-4">
          <mxGeometry relative="1" as="geometry">
            <mxPoint x="395" y="220" as="targetPoint" />
          </mxGeometry>
        </mxCell>
        <mxCell id="ZcGMghU7jkiHjOlIlVme-4" value="Perumusan Latar Belakang" style="rounded=0;whiteSpace=wrap;html=1;" vertex="1" parent="1">
          <mxGeometry x="337.5" y="140" width="115" height="50" as="geometry" />
        </mxCell>
        <mxCell id="ZcGMghU7jkiHjOlIlVme-13" style="edgeStyle=orthogonalEdgeStyle;rounded=0;orthogonalLoop=1;jettySize=auto;html=1;exitX=0;exitY=0.5;exitDx=0;exitDy=0;entryX=1;entryY=0.5;entryDx=0;entryDy=0;" edge="1" parent="1" source="ZcGMghU7jkiHjOlIlVme-6" target="ZcGMghU7jkiHjOlIlVme-4">
          <mxGeometry relative="1" as="geometry" />
        </mxCell>
        <mxCell id="ZcGMghU7jkiHjOlIlVme-6" value="Mimpi&amp;nbsp;" style="shape=parallelogram;perimeter=parallelogramPerimeter;whiteSpace=wrap;html=1;fixedSize=1;" vertex="1" parent="1">
          <mxGeometry x="510" y="140" width="110" height="50" as="geometry" />
        </mxCell>
        <mxCell id="ZcGMghU7jkiHjOlIlVme-12" style="edgeStyle=orthogonalEdgeStyle;rounded=0;orthogonalLoop=1;jettySize=auto;html=1;exitX=0;exitY=0.5;exitDx=0;exitDy=0;entryX=0.5;entryY=0;entryDx=0;entryDy=0;" edge="1" parent="1" source="ZcGMghU7jkiHjOlIlVme-7" target="ZcGMghU7jkiHjOlIlVme-6">
          <mxGeometry relative="1" as="geometry" />
        </mxCell>
        <mxCell id="ZcGMghU7jkiHjOlIlVme-7" value="Motivasi" style="shape=parallelogram;perimeter=parallelogramPerimeter;whiteSpace=wrap;html=1;fixedSize=1;" vertex="1" parent="1">
          <mxGeometry x="640" y="60" width="120" height="50" as="geometry" />
        </mxCell>
        <mxCell id="ZcGMghU7jkiHjOlIlVme-11" style="edgeStyle=orthogonalEdgeStyle;rounded=0;orthogonalLoop=1;jettySize=auto;html=1;exitX=0;exitY=0.5;exitDx=0;exitDy=0;entryX=0.5;entryY=1;entryDx=0;entryDy=0;" edge="1" parent="1" source="ZcGMghU7jkiHjOlIlVme-8" target="ZcGMghU7jkiHjOlIlVme-6">
          <mxGeometry relative="1" as="geometry" />
        </mxCell>
        <mxCell id="ZcGMghU7jkiHjOlIlVme-8" value="Keresahaan&amp;nbsp;" style="shape=parallelogram;perimeter=parallelogramPerimeter;whiteSpace=wrap;html=1;fixedSize=1;" vertex="1" parent="1">
          <mxGeometry x="640" y="190" width="120" height="50" as="geometry" />
        </mxCell>
        <mxCell id="ZcGMghU7jkiHjOlIlVme-18" style="edgeStyle=orthogonalEdgeStyle;rounded=0;orthogonalLoop=1;jettySize=auto;html=1;exitX=1;exitY=0.5;exitDx=0;exitDy=0;entryX=0.5;entryY=0;entryDx=0;entryDy=0;" edge="1" parent="1" source="ZcGMghU7jkiHjOlIlVme-14" target="ZcGMghU7jkiHjOlIlVme-16">
          <mxGeometry relative="1" as="geometry">
            <mxPoint x="500" y="290" as="targetPoint" />
            <Array as="points">
              <mxPoint x="500" y="245" />
            </Array>
          </mxGeometry>
        </mxCell>
        <mxCell id="ZcGMghU7jkiHjOlIlVme-19" style="edgeStyle=orthogonalEdgeStyle;rounded=0;orthogonalLoop=1;jettySize=auto;html=1;entryX=0.5;entryY=0;entryDx=0;entryDy=0;" edge="1" parent="1" source="ZcGMghU7jkiHjOlIlVme-14" target="ZcGMghU7jkiHjOlIlVme-17">
          <mxGeometry relative="1" as="geometry">
            <mxPoint x="280" y="280" as="targetPoint" />
            <Array as="points">
              <mxPoint x="280" y="240" />
            </Array>
          </mxGeometry>
        </mxCell>
        <mxCell id="ZcGMghU7jkiHjOlIlVme-14" value="Latar Belakang" style="shape=parallelogram;perimeter=parallelogramPerimeter;whiteSpace=wrap;html=1;fixedSize=1;rotation=0;rounded=1;" vertex="1" parent="1">
          <mxGeometry x="330" y="220" width="119" height="50" as="geometry" />
        </mxCell>
        <mxCell id="ZcGMghU7jkiHjOlIlVme-23" style="edgeStyle=orthogonalEdgeStyle;rounded=0;orthogonalLoop=1;jettySize=auto;html=1;exitX=0.5;exitY=1;exitDx=0;exitDy=0;" edge="1" parent="1" source="ZcGMghU7jkiHjOlIlVme-16" target="ZcGMghU7jkiHjOlIlVme-21">
          <mxGeometry relative="1" as="geometry" />
        </mxCell>
        <mxCell id="ZcGMghU7jkiHjOlIlVme-16" value="Perumusan Analisis Kondisi Aktual" style="rounded=1;whiteSpace=wrap;html=1;" vertex="1" parent="1">
          <mxGeometry x="440" y="300" width="120" height="50" as="geometry" />
        </mxCell>
        <mxCell id="ZcGMghU7jkiHjOlIlVme-24" style="edgeStyle=orthogonalEdgeStyle;rounded=0;orthogonalLoop=1;jettySize=auto;html=1;entryX=0.5;entryY=0;entryDx=0;entryDy=0;" edge="1" parent="1" source="ZcGMghU7jkiHjOlIlVme-17" target="ZcGMghU7jkiHjOlIlVme-22">
          <mxGeometry relative="1" as="geometry" />
        </mxCell>
        <mxCell id="ZcGMghU7jkiHjOlIlVme-17" value="Perumusan Analisis Kondisi Ideal" style="rounded=1;whiteSpace=wrap;html=1;" vertex="1" parent="1">
          <mxGeometry x="220" y="300" width="120" height="50" as="geometry" />
        </mxCell>
        <mxCell id="ZcGMghU7jkiHjOlIlVme-26" style="edgeStyle=orthogonalEdgeStyle;rounded=0;orthogonalLoop=1;jettySize=auto;html=1;exitX=0.5;exitY=1;exitDx=0;exitDy=0;entryX=1;entryY=0.5;entryDx=0;entryDy=0;" edge="1" parent="1" source="ZcGMghU7jkiHjOlIlVme-21" target="ZcGMghU7jkiHjOlIlVme-25">
          <mxGeometry relative="1" as="geometry" />
        </mxCell>
        <mxCell id="ZcGMghU7jkiHjOlIlVme-21" value="Analisis Kondisi Aktual" style="shape=parallelogram;perimeter=parallelogramPerimeter;whiteSpace=wrap;html=1;fixedSize=1;" vertex="1" parent="1">
          <mxGeometry x="440" y="380" width="120" height="50" as="geometry" />
        </mxCell>
        <mxCell id="ZcGMghU7jkiHjOlIlVme-27" style="edgeStyle=orthogonalEdgeStyle;rounded=0;orthogonalLoop=1;jettySize=auto;html=1;exitX=0.5;exitY=1;exitDx=0;exitDy=0;entryX=0;entryY=0.5;entryDx=0;entryDy=0;" edge="1" parent="1" source="ZcGMghU7jkiHjOlIlVme-22" target="ZcGMghU7jkiHjOlIlVme-25">
          <mxGeometry relative="1" as="geometry" />
        </mxCell>
        <mxCell id="ZcGMghU7jkiHjOlIlVme-22" value="Analisis Kondisi&amp;nbsp;&lt;br&gt;ideal" style="shape=parallelogram;perimeter=parallelogramPerimeter;whiteSpace=wrap;html=1;fixedSize=1;" vertex="1" parent="1">
          <mxGeometry x="220" y="380" width="120" height="50" as="geometry" />
        </mxCell>
        <mxCell id="ZcGMghU7jkiHjOlIlVme-52" style="edgeStyle=orthogonalEdgeStyle;rounded=0;orthogonalLoop=1;jettySize=auto;html=1;entryX=0.5;entryY=0;entryDx=0;entryDy=0;" edge="1" parent="1" source="ZcGMghU7jkiHjOlIlVme-25" target="ZcGMghU7jkiHjOlIlVme-40">
          <mxGeometry relative="1" as="geometry" />
        </mxCell>
        <mxCell id="ZcGMghU7jkiHjOlIlVme-25" value="Perumusan Analisis Kebutuhan&amp;nbsp;" style="rounded=1;whiteSpace=wrap;html=1;" vertex="1" parent="1">
          <mxGeometry x="320" y="460" width="120" height="40" as="geometry" />
        </mxCell>
        <mxCell id="ZcGMghU7jkiHjOlIlVme-30" value="wawancara kawis sebelumnya&amp;nbsp;" style="shape=parallelogram;perimeter=parallelogramPerimeter;whiteSpace=wrap;html=1;fixedSize=1;rotation=0;rounded=1;" vertex="1" parent="1">
          <mxGeometry x="630" y="260" width="130" height="50" as="geometry" />
        </mxCell>
        <mxCell id="ZcGMghU7jkiHjOlIlVme-31" value="LPJ Wisuda IMT &quot;Signum&quot; ITB&amp;nbsp;" style="shape=document;whiteSpace=wrap;html=1;boundedLbl=1;" vertex="1" parent="1">
          <mxGeometry x="630" y="340" width="110" height="50" as="geometry" />
        </mxCell>
        <mxCell id="ZcGMghU7jkiHjOlIlVme-34" value="" style="endArrow=none;html=1;rounded=0;exitX=1;exitY=0.5;exitDx=0;exitDy=0;" edge="1" parent="1" source="ZcGMghU7jkiHjOlIlVme-16">
          <mxGeometry width="50" height="50" relative="1" as="geometry">
            <mxPoint x="480" y="340" as="sourcePoint" />
            <mxPoint x="700" y="325" as="targetPoint" />
          </mxGeometry>
        </mxCell>
        <mxCell id="ZcGMghU7jkiHjOlIlVme-35" value="" style="endArrow=none;html=1;rounded=0;exitX=0.632;exitY=0.013;exitDx=0;exitDy=0;exitPerimeter=0;" edge="1" parent="1" source="ZcGMghU7jkiHjOlIlVme-31">
          <mxGeometry width="50" height="50" relative="1" as="geometry">
            <mxPoint x="700" y="330" as="sourcePoint" />
            <mxPoint x="700" y="310" as="targetPoint" />
          </mxGeometry>
        </mxCell>
        <mxCell id="ZcGMghU7jkiHjOlIlVme-36" value="wawancara&amp;nbsp;&lt;br&gt;wisudawan" style="shape=parallelogram;perimeter=parallelogramPerimeter;whiteSpace=wrap;html=1;fixedSize=1;rotation=0;rounded=1;" vertex="1" parent="1">
          <mxGeometry x="30" y="260" width="130" height="50" as="geometry" />
        </mxCell>
        <mxCell id="ZcGMghU7jkiHjOlIlVme-37" value="AD/ART IMT &quot;Signum&quot; ITB" style="shape=document;whiteSpace=wrap;html=1;boundedLbl=1;" vertex="1" parent="1">
          <mxGeometry x="30" y="340" width="110" height="55" as="geometry" />
        </mxCell>
        <mxCell id="ZcGMghU7jkiHjOlIlVme-38" value="" style="endArrow=none;html=1;rounded=0;entryX=0;entryY=0.5;entryDx=0;entryDy=0;" edge="1" parent="1" target="ZcGMghU7jkiHjOlIlVme-17">
          <mxGeometry width="50" height="50" relative="1" as="geometry">
            <mxPoint x="90" y="325" as="sourcePoint" />
            <mxPoint x="370" y="350" as="targetPoint" />
          </mxGeometry>
        </mxCell>
        <mxCell id="ZcGMghU7jkiHjOlIlVme-39" value="" style="endArrow=none;html=1;rounded=0;exitX=0.462;exitY=0.989;exitDx=0;exitDy=0;entryX=0.541;entryY=0;entryDx=0;entryDy=0;entryPerimeter=0;exitPerimeter=0;" edge="1" parent="1" source="ZcGMghU7jkiHjOlIlVme-36" target="ZcGMghU7jkiHjOlIlVme-37">
          <mxGeometry width="50" height="50" relative="1" as="geometry">
            <mxPoint x="300" y="410" as="sourcePoint" />
            <mxPoint x="350" y="360" as="targetPoint" />
          </mxGeometry>
        </mxCell>
        <mxCell id="ZcGMghU7jkiHjOlIlVme-53" style="edgeStyle=orthogonalEdgeStyle;rounded=0;orthogonalLoop=1;jettySize=auto;html=1;exitX=0.5;exitY=1;exitDx=0;exitDy=0;entryX=0.5;entryY=0;entryDx=0;entryDy=0;" edge="1" parent="1" source="ZcGMghU7jkiHjOlIlVme-40" target="ZcGMghU7jkiHjOlIlVme-41">
          <mxGeometry relative="1" as="geometry" />
        </mxCell>
        <mxCell id="ZcGMghU7jkiHjOlIlVme-40" value="Analisis &lt;br&gt;Kebutuhan" style="shape=parallelogram;perimeter=parallelogramPerimeter;whiteSpace=wrap;html=1;fixedSize=1;rotation=0;rounded=1;" vertex="1" parent="1">
          <mxGeometry x="320" y="535" width="119" height="50" as="geometry" />
        </mxCell>
        <mxCell id="ZcGMghU7jkiHjOlIlVme-54" style="edgeStyle=orthogonalEdgeStyle;rounded=0;orthogonalLoop=1;jettySize=auto;html=1;exitX=0.5;exitY=1;exitDx=0;exitDy=0;entryX=0.5;entryY=0;entryDx=0;entryDy=0;" edge="1" parent="1" source="ZcGMghU7jkiHjOlIlVme-41" target="ZcGMghU7jkiHjOlIlVme-42">
          <mxGeometry relative="1" as="geometry" />
        </mxCell>
        <mxCell id="ZcGMghU7jkiHjOlIlVme-41" value="Perumusan Visi&amp;nbsp;" style="rounded=1;whiteSpace=wrap;html=1;" vertex="1" parent="1">
          <mxGeometry x="319" y="620" width="120" height="40" as="geometry" />
        </mxCell>
        <mxCell id="ZcGMghU7jkiHjOlIlVme-57" style="edgeStyle=orthogonalEdgeStyle;rounded=0;orthogonalLoop=1;jettySize=auto;html=1;exitX=0.5;exitY=1;exitDx=0;exitDy=0;entryX=0.5;entryY=0;entryDx=0;entryDy=0;" edge="1" parent="1" source="ZcGMghU7jkiHjOlIlVme-42" target="ZcGMghU7jkiHjOlIlVme-43">
          <mxGeometry relative="1" as="geometry" />
        </mxCell>
        <mxCell id="ZcGMghU7jkiHjOlIlVme-42" value="Visi" style="shape=parallelogram;perimeter=parallelogramPerimeter;whiteSpace=wrap;html=1;fixedSize=1;rotation=0;rounded=1;" vertex="1" parent="1">
          <mxGeometry x="320.5" y="690" width="119" height="50" as="geometry" />
        </mxCell>
        <mxCell id="ZcGMghU7jkiHjOlIlVme-58" style="edgeStyle=orthogonalEdgeStyle;rounded=0;orthogonalLoop=1;jettySize=auto;html=1;exitX=0.5;exitY=1;exitDx=0;exitDy=0;entryX=0.5;entryY=0;entryDx=0;entryDy=0;" edge="1" parent="1" source="ZcGMghU7jkiHjOlIlVme-43" target="ZcGMghU7jkiHjOlIlVme-44">
          <mxGeometry relative="1" as="geometry" />
        </mxCell>
        <mxCell id="ZcGMghU7jkiHjOlIlVme-43" value="Perumusan Misi&amp;nbsp;" style="rounded=1;whiteSpace=wrap;html=1;" vertex="1" parent="1">
          <mxGeometry x="319" y="770" width="120" height="40" as="geometry" />
        </mxCell>
        <mxCell id="ZcGMghU7jkiHjOlIlVme-59" style="edgeStyle=orthogonalEdgeStyle;rounded=0;orthogonalLoop=1;jettySize=auto;html=1;exitX=0.5;exitY=1;exitDx=0;exitDy=0;entryX=0.5;entryY=0;entryDx=0;entryDy=0;" edge="1" parent="1" source="ZcGMghU7jkiHjOlIlVme-44" target="ZcGMghU7jkiHjOlIlVme-45">
          <mxGeometry relative="1" as="geometry" />
        </mxCell>
        <mxCell id="ZcGMghU7jkiHjOlIlVme-44" value="Misi&amp;nbsp;" style="shape=parallelogram;perimeter=parallelogramPerimeter;whiteSpace=wrap;html=1;fixedSize=1;rotation=0;rounded=1;" vertex="1" parent="1">
          <mxGeometry x="319" y="840" width="119" height="50" as="geometry" />
        </mxCell>
        <mxCell id="ZcGMghU7jkiHjOlIlVme-60" style="edgeStyle=orthogonalEdgeStyle;rounded=0;orthogonalLoop=1;jettySize=auto;html=1;exitX=0.5;exitY=1;exitDx=0;exitDy=0;entryX=0.5;entryY=0;entryDx=0;entryDy=0;" edge="1" parent="1" source="ZcGMghU7jkiHjOlIlVme-45" target="ZcGMghU7jkiHjOlIlVme-46">
          <mxGeometry relative="1" as="geometry" />
        </mxCell>
        <mxCell id="ZcGMghU7jkiHjOlIlVme-45" value="Perumusan Tema" style="rounded=1;whiteSpace=wrap;html=1;" vertex="1" parent="1">
          <mxGeometry x="318" y="920" width="120" height="40" as="geometry" />
        </mxCell>
        <mxCell id="ZcGMghU7jkiHjOlIlVme-61" style="edgeStyle=orthogonalEdgeStyle;rounded=0;orthogonalLoop=1;jettySize=auto;html=1;exitX=0.5;exitY=1;exitDx=0;exitDy=0;entryX=0.5;entryY=0;entryDx=0;entryDy=0;" edge="1" parent="1" source="ZcGMghU7jkiHjOlIlVme-46" target="ZcGMghU7jkiHjOlIlVme-47">
          <mxGeometry relative="1" as="geometry" />
        </mxCell>
        <mxCell id="ZcGMghU7jkiHjOlIlVme-46" value="Tema" style="shape=parallelogram;perimeter=parallelogramPerimeter;whiteSpace=wrap;html=1;fixedSize=1;rotation=0;rounded=1;" vertex="1" parent="1">
          <mxGeometry x="318" y="990" width="119" height="50" as="geometry" />
        </mxCell>
        <mxCell id="ZcGMghU7jkiHjOlIlVme-62" style="edgeStyle=orthogonalEdgeStyle;rounded=0;orthogonalLoop=1;jettySize=auto;html=1;exitX=0.5;exitY=1;exitDx=0;exitDy=0;entryX=0.5;entryY=0;entryDx=0;entryDy=0;" edge="1" parent="1" source="ZcGMghU7jkiHjOlIlVme-47" target="ZcGMghU7jkiHjOlIlVme-48">
          <mxGeometry relative="1" as="geometry" />
        </mxCell>
        <mxCell id="ZcGMghU7jkiHjOlIlVme-47" value="Perumusan Strategi dan Implementasi" style="rounded=1;whiteSpace=wrap;html=1;" vertex="1" parent="1">
          <mxGeometry x="318.5" y="1070" width="120" height="40" as="geometry" />
        </mxCell>
        <mxCell id="ZcGMghU7jkiHjOlIlVme-63" style="edgeStyle=orthogonalEdgeStyle;rounded=0;orthogonalLoop=1;jettySize=auto;html=1;exitX=0.5;exitY=1;exitDx=0;exitDy=0;entryX=0.5;entryY=0;entryDx=0;entryDy=0;" edge="1" parent="1" source="ZcGMghU7jkiHjOlIlVme-48" target="ZcGMghU7jkiHjOlIlVme-49">
          <mxGeometry relative="1" as="geometry" />
        </mxCell>
        <mxCell id="ZcGMghU7jkiHjOlIlVme-48" value="Strategi dan Implementasi" style="shape=parallelogram;perimeter=parallelogramPerimeter;whiteSpace=wrap;html=1;fixedSize=1;rotation=0;rounded=1;" vertex="1" parent="1">
          <mxGeometry x="319.5" y="1140" width="119" height="50" as="geometry" />
        </mxCell>
        <mxCell id="ZcGMghU7jkiHjOlIlVme-64" style="edgeStyle=orthogonalEdgeStyle;rounded=0;orthogonalLoop=1;jettySize=auto;html=1;exitX=0.5;exitY=1;exitDx=0;exitDy=0;entryX=0.5;entryY=0;entryDx=0;entryDy=0;" edge="1" parent="1" source="ZcGMghU7jkiHjOlIlVme-49" target="ZcGMghU7jkiHjOlIlVme-50">
          <mxGeometry relative="1" as="geometry" />
        </mxCell>
        <mxCell id="ZcGMghU7jkiHjOlIlVme-49" value="Perumusan Organogram" style="rounded=1;whiteSpace=wrap;html=1;" vertex="1" parent="1">
          <mxGeometry x="317" y="1220" width="120" height="40" as="geometry" />
        </mxCell>
        <mxCell id="ZcGMghU7jkiHjOlIlVme-69" style="edgeStyle=orthogonalEdgeStyle;rounded=0;orthogonalLoop=1;jettySize=auto;html=1;exitX=0.5;exitY=1;exitDx=0;exitDy=0;entryX=0.5;entryY=0;entryDx=0;entryDy=0;" edge="1" parent="1" source="ZcGMghU7jkiHjOlIlVme-50" target="ZcGMghU7jkiHjOlIlVme-67">
          <mxGeometry relative="1" as="geometry" />
        </mxCell>
        <mxCell id="ZcGMghU7jkiHjOlIlVme-50" value="Organogram" style="shape=parallelogram;perimeter=parallelogramPerimeter;whiteSpace=wrap;html=1;fixedSize=1;rotation=0;rounded=1;" vertex="1" parent="1">
          <mxGeometry x="320" y="1290" width="119" height="50" as="geometry" />
        </mxCell>
        <mxCell id="ZcGMghU7jkiHjOlIlVme-71" style="edgeStyle=orthogonalEdgeStyle;rounded=0;orthogonalLoop=1;jettySize=auto;html=1;exitX=0.5;exitY=1;exitDx=0;exitDy=0;entryX=0.5;entryY=0;entryDx=0;entryDy=0;" edge="1" parent="1" source="ZcGMghU7jkiHjOlIlVme-67" target="ZcGMghU7jkiHjOlIlVme-70">
          <mxGeometry relative="1" as="geometry" />
        </mxCell>
        <mxCell id="ZcGMghU7jkiHjOlIlVme-67" value="Perumusan arahan kerja&amp;nbsp;" style="rounded=1;whiteSpace=wrap;html=1;" vertex="1" parent="1">
          <mxGeometry x="317" y="1370" width="120" height="40" as="geometry" />
        </mxCell>
        <mxCell id="ZcGMghU7jkiHjOlIlVme-73" style="edgeStyle=orthogonalEdgeStyle;rounded=0;orthogonalLoop=1;jettySize=auto;html=1;exitX=0.5;exitY=1;exitDx=0;exitDy=0;entryX=0.5;entryY=0;entryDx=0;entryDy=0;" edge="1" parent="1" source="ZcGMghU7jkiHjOlIlVme-70" target="ZcGMghU7jkiHjOlIlVme-72">
          <mxGeometry relative="1" as="geometry" />
        </mxCell>
        <mxCell id="ZcGMghU7jkiHjOlIlVme-70" value="Arahan Kerja&amp;nbsp;" style="shape=parallelogram;perimeter=parallelogramPerimeter;whiteSpace=wrap;html=1;fixedSize=1;rotation=0;rounded=1;" vertex="1" parent="1">
          <mxGeometry x="317.5" y="1440" width="119" height="50" as="geometry" />
        </mxCell>
        <mxCell id="ZcGMghU7jkiHjOlIlVme-75" style="edgeStyle=orthogonalEdgeStyle;rounded=0;orthogonalLoop=1;jettySize=auto;html=1;exitX=0.5;exitY=1;exitDx=0;exitDy=0;entryX=0.5;entryY=0;entryDx=0;entryDy=0;" edge="1" parent="1" source="ZcGMghU7jkiHjOlIlVme-72" target="ZcGMghU7jkiHjOlIlVme-74">
          <mxGeometry relative="1" as="geometry" />
        </mxCell>
        <mxCell id="ZcGMghU7jkiHjOlIlVme-72" value="Pelaksanaan&amp;nbsp;" style="rounded=0;whiteSpace=wrap;html=1;" vertex="1" parent="1">
          <mxGeometry x="316.5" y="1520" width="120" height="60" as="geometry" />
        </mxCell>
        <mxCell id="ZcGMghU7jkiHjOlIlVme-74" value="Evaluasi" style="rounded=0;whiteSpace=wrap;html=1;" vertex="1" parent="1">
          <mxGeometry x="316.5" y="1620" width="120" height="60" as="geometry" />
        </mxCell>
        <mxCell id="ZcGMghU7jkiHjOlIlVme-76" value="Selesai" style="strokeWidth=2;html=1;shape=mxgraph.flowchart.terminator;whiteSpace=wrap;" vertex="1" parent="1">
          <mxGeometry x="322.5" y="1720" width="110" height="50" as="geometry" />
        </mxCell>
        <mxCell id="ZcGMghU7jkiHjOlIlVme-77" style="edgeStyle=orthogonalEdgeStyle;rounded=0;orthogonalLoop=1;jettySize=auto;html=1;exitX=0.5;exitY=1;exitDx=0;exitDy=0;entryX=0.5;entryY=0;entryDx=0;entryDy=0;entryPerimeter=0;" edge="1" parent="1" source="ZcGMghU7jkiHjOlIlVme-74" target="ZcGMghU7jkiHjOlIlVme-76">
          <mxGeometry relative="1" as="geometry" />
        </mxCell>
      </root>
    </mxGraphModel>
  </diagram>
</mxfile>
